<svg id="a532a40c-e6c3-473e-a3b2-3880d8676069" data-name="Layer 1" xmlns="http://www.w3.org/2000/svg" xmlns:xlink="http://www.w3.org/1999/xlink" viewBox="0 0 107.32 31.44"><defs><linearGradient id="ff2f59f6-9fe4-42c5-9a8e-b8a026ab72c4" x1="9.63" y1="18.2" x2="9.9" y2="-1.35" gradientUnits="userSpaceOnUse"><stop offset="0" stop-color="#fff"/><stop offset="1"/></linearGradient><linearGradient id="a348312d-d142-4c02-9e32-8001884bb080" x1="22.01" y1="18.38" x2="22.28" y2="-1.18" xlink:href="#ff2f59f6-9fe4-42c5-9a8e-b8a026ab72c4"/><linearGradient id="edb1dd90-9bf6-4f7d-8135-307fdc23f772" x1="34.01" y1="18.54" x2="34.28" y2="-1.01" xlink:href="#ff2f59f6-9fe4-42c5-9a8e-b8a026ab72c4"/><linearGradient id="e9e93fc3-0c2b-4e44-aa47-cc4b33b51141" x1="46.01" y1="18.71" x2="46.29" y2="-0.84" xlink:href="#ff2f59f6-9fe4-42c5-9a8e-b8a026ab72c4"/><linearGradient id="b085d604-7598-43c2-8fb2-7a595b0ee22b" x1="57.31" y1="18.87" x2="57.58" y2="-0.69" xlink:href="#ff2f59f6-9fe4-42c5-9a8e-b8a026ab72c4"/><linearGradient id="f76f4e56-3fec-4090-a185-5315805ac75a" x1="71.78" y1="19.07" x2="72.06" y2="-0.49" xlink:href="#ff2f59f6-9fe4-42c5-9a8e-b8a026ab72c4"/><linearGradient id="e682d5bb-65a2-4e83-9f53-9432f64a3061" x1="87.63" y1="19.29" x2="87.9" y2="-0.27" xlink:href="#ff2f59f6-9fe4-42c5-9a8e-b8a026ab72c4"/><linearGradient id="f4042a5f-6768-4662-9871-8d9d1e8578d5" x1="98.85" y1="19.44" x2="99.12" y2="-0.11" xlink:href="#ff2f59f6-9fe4-42c5-9a8e-b8a026ab72c4"/><linearGradient id="a789272d-b962-4732-9d5a-f37e617a876a" x1="108.41" y1="19.58" x2="108.69" y2="0.02" xlink:href="#ff2f59f6-9fe4-42c5-9a8e-b8a026ab72c4"/><linearGradient id="bb1602b7-c777-4a82-844b-b5d5e01e43d6" x1="9.47" y1="53.14" x2="9.84" y2="15.23" gradientUnits="userSpaceOnUse"><stop offset="0" stop-color="#fff"/><stop offset="0.18" stop-color="#f4f5f5" stop-opacity="0.2"/><stop offset="0.86" stop-opacity="0.7"/></linearGradient><linearGradient id="e0df1ac5-9af0-4880-a589-63b5c9c715ed" x1="21.67" y1="53.26" x2="22.05" y2="15.35" xlink:href="#bb1602b7-c777-4a82-844b-b5d5e01e43d6"/><linearGradient id="fc698dfe-4238-4a85-a61f-445cc1cddd7d" x1="33.83" y1="53.38" x2="34.21" y2="15.47" xlink:href="#bb1602b7-c777-4a82-844b-b5d5e01e43d6"/><linearGradient id="a8602be4-72aa-488a-86d1-e85711b32861" x1="45.84" y1="53.5" x2="46.22" y2="15.59" xlink:href="#bb1602b7-c777-4a82-844b-b5d5e01e43d6"/><linearGradient id="e06a6ddb-d7d9-4c5a-bca2-5c825bb9037a" x1="57.34" y1="53.62" x2="57.71" y2="15.7" xlink:href="#bb1602b7-c777-4a82-844b-b5d5e01e43d6"/><linearGradient id="bd50de8b-3c98-4861-a615-32ae04ea4ce0" x1="71.57" y1="53.76" x2="71.95" y2="15.84" xlink:href="#bb1602b7-c777-4a82-844b-b5d5e01e43d6"/><linearGradient id="f2bd8f9b-848d-4972-b93c-53e34f19a178" x1="87.49" y1="53.91" x2="87.86" y2="16" xlink:href="#bb1602b7-c777-4a82-844b-b5d5e01e43d6"/><linearGradient id="b1c6842b-4d4e-4947-bc96-c8081974b583" x1="98.64" y1="54.02" x2="99.01" y2="16.11" xlink:href="#bb1602b7-c777-4a82-844b-b5d5e01e43d6"/><linearGradient id="e2ff0eb1-1566-477e-89cb-16a36d711b8a" x1="108.21" y1="54.12" x2="108.58" y2="16.2" xlink:href="#bb1602b7-c777-4a82-844b-b5d5e01e43d6"/></defs><path d="M5.1,18.46V3.34h4v5.4h1.21V3.34h4V18.46h-4V12.11H9.12v6.35Z" transform="translate(-4.9 -3.14)" style="fill:#231f20;stroke:#fff;stroke-miterlimit:10;stroke-width:0.4px"/><path d="M16.92,18.46,19,3.34h5.81l2.31,15.12H23l-.22-2.72H21.33l-.26,2.72Z" transform="translate(-4.9 -3.14)" style="fill:#231f20;stroke:#fff;stroke-miterlimit:10;stroke-width:0.4px"/><path d="M29.62,3.34h2.85a24.62,24.62,0,0,1,3.87.19,2.47,2.47,0,0,1,1.15.55,2.93,2.93,0,0,1,.7.94,4.47,4.47,0,0,1,.33,1.18,9.11,9.11,0,0,1,.09,1.26,11.77,11.77,0,0,1-.06,1.25,2.26,2.26,0,0,1-.28.94,1.63,1.63,0,0,1-.66.61,3.2,3.2,0,0,1-1.21.29,5.39,5.39,0,0,1,.68.22,2.67,2.67,0,0,1,.63.32,2.31,2.31,0,0,1,.51.48,1.72,1.72,0,0,1,.3.67,14.61,14.61,0,0,1,.09,2.24v4H34.87V15.84H33.64v2.62h-4Z" transform="translate(-4.9 -3.14)" style="fill:#231f20;stroke:#fff;stroke-miterlimit:10;stroke-width:0.4px"/><path d="M41.63,3.34h2.85a24.62,24.62,0,0,1,3.87.19,2.47,2.47,0,0,1,1.15.55,2.76,2.76,0,0,1,.69.94,4.13,4.13,0,0,1,.34,1.18,9.11,9.11,0,0,1,.09,1.26,11.77,11.77,0,0,1-.06,1.25,2.26,2.26,0,0,1-.28.94,1.63,1.63,0,0,1-.66.61,3.2,3.2,0,0,1-1.21.29,5.39,5.39,0,0,1,.68.22,2.87,2.87,0,0,1,.63.32,2.31,2.31,0,0,1,.51.48,1.72,1.72,0,0,1,.3.67,14.61,14.61,0,0,1,.09,2.24v4H46.88V15.84H45.65v2.62h-4Z" transform="translate(-4.9 -3.14)" style="fill:#231f20;stroke:#fff;stroke-miterlimit:10;stroke-width:0.4px"/><path d="M52.78,3.34h3.69a54.35,54.35,0,0,1,1,6c.12-.82.27-1.72.45-2.71s.42-2.07.67-3.25h3.72l-3,9.65v5.47H55.61V13Z" transform="translate(-4.9 -3.14)" style="fill:#231f20;stroke:#fff;stroke-miterlimit:10;stroke-width:0.4px"/><path d="M70.59,3.34h4V13.45c0,.76,0,1.39,0,1.88s0,.83,0,1a2.41,2.41,0,0,1-.43,1.19,2.06,2.06,0,0,1-.46.42,2.09,2.09,0,0,1-.6.29,7.7,7.7,0,0,1-2,.2h-2V15.82a2,2,0,0,0,.31,0h.21a1.11,1.11,0,0,0,.69-.19.61.61,0,0,0,.19-.24c0-.08.06-.18.09-.28a2.31,2.31,0,0,0,0-.43c0-.19,0-.42,0-.71Z" transform="translate(-4.9 -3.14)" style="fill:#231f20;stroke:#fff;stroke-miterlimit:10;stroke-width:0.4px"/><path d="M91.63,4.44A3.22,3.22,0,0,1,92.3,5.8a19.23,19.23,0,0,1,.13,2.85V14a12.21,12.21,0,0,1-.19,2.72,2,2,0,0,1-.7,1.1,3.66,3.66,0,0,1-1.2.54,12.82,12.82,0,0,1-2.16.13H83.12V3.34h3a18.5,18.5,0,0,1,3.93.26A3.2,3.2,0,0,1,91.63,4.44Z" transform="translate(-4.9 -3.14)" style="fill:#231f20;stroke:#fff;stroke-miterlimit:10;stroke-width:0.4px"/><path d="M102.2,3.34v3H99.5V9.24H102v2.87H99.5v3.32h3v3h-7V3.34Z" transform="translate(-4.9 -3.14)" style="fill:#231f20;stroke:#fff;stroke-miterlimit:10;stroke-width:0.4px"/><path d="M111.76,3.34v3h-2.7V9.24h2.53v2.87h-2.53v3.32h3v3h-7V3.34Z" transform="translate(-4.9 -3.14)" style="fill:#231f20;stroke:#fff;stroke-miterlimit:10;stroke-width:0.4px"/><path d="M5.1,18.46V3.34h4v5.4h1.21V3.34h4V18.46h-4V12.11H9.12v6.35Z" transform="translate(-4.9 -3.14)" style="stroke:#fff;stroke-miterlimit:10;stroke-width:0.4px;fill:url(#ff2f59f6-9fe4-42c5-9a8e-b8a026ab72c4)"/><path d="M16.92,18.46,19,3.34h5.81l2.31,15.12H23l-.22-2.72H21.33l-.26,2.72Z" transform="translate(-4.9 -3.14)" style="stroke:#fff;stroke-miterlimit:10;stroke-width:0.4px;fill:url(#a348312d-d142-4c02-9e32-8001884bb080)"/><path d="M29.62,3.34h2.85a24.62,24.62,0,0,1,3.87.19,2.47,2.47,0,0,1,1.15.55,2.93,2.93,0,0,1,.7.94,4.47,4.47,0,0,1,.33,1.18,9.11,9.11,0,0,1,.09,1.26,11.77,11.77,0,0,1-.06,1.25,2.26,2.26,0,0,1-.28.94,1.63,1.63,0,0,1-.66.61,3.2,3.2,0,0,1-1.21.29,5.39,5.39,0,0,1,.68.22,2.67,2.67,0,0,1,.63.32,2.31,2.31,0,0,1,.51.48,1.72,1.72,0,0,1,.3.67,14.61,14.61,0,0,1,.09,2.24v4H34.87V15.84H33.64v2.62h-4Z" transform="translate(-4.9 -3.14)" style="stroke:#fff;stroke-miterlimit:10;stroke-width:0.4px;fill:url(#edb1dd90-9bf6-4f7d-8135-307fdc23f772)"/><path d="M41.63,3.34h2.85a24.62,24.62,0,0,1,3.87.19,2.47,2.47,0,0,1,1.15.55,2.76,2.76,0,0,1,.69.94,4.13,4.13,0,0,1,.34,1.18,9.11,9.11,0,0,1,.09,1.26,11.77,11.77,0,0,1-.06,1.25,2.26,2.26,0,0,1-.28.94,1.63,1.63,0,0,1-.66.61,3.2,3.2,0,0,1-1.21.29,5.39,5.39,0,0,1,.68.22,2.87,2.87,0,0,1,.63.32,2.31,2.31,0,0,1,.51.48,1.72,1.72,0,0,1,.3.67,14.61,14.61,0,0,1,.09,2.24v4H46.88V15.84H45.65v2.62h-4Z" transform="translate(-4.9 -3.14)" style="stroke:#fff;stroke-miterlimit:10;stroke-width:0.4px;fill:url(#e9e93fc3-0c2b-4e44-aa47-cc4b33b51141)"/><path d="M52.78,3.34h3.69a54.35,54.35,0,0,1,1,6c.12-.82.27-1.72.45-2.71s.42-2.07.67-3.25h3.72l-3,9.65v5.47H55.61V13Z" transform="translate(-4.9 -3.14)" style="stroke:#fff;stroke-miterlimit:10;stroke-width:0.4px;fill:url(#b085d604-7598-43c2-8fb2-7a595b0ee22b)"/><path d="M70.59,3.34h4V13.45c0,.76,0,1.39,0,1.88s0,.83,0,1a2.41,2.41,0,0,1-.43,1.19,2.06,2.06,0,0,1-.46.42,2.09,2.09,0,0,1-.6.29,7.7,7.7,0,0,1-2,.2h-2V15.82a2,2,0,0,0,.31,0h.21a1.11,1.11,0,0,0,.69-.19.61.61,0,0,0,.19-.24c0-.08.06-.18.09-.28a2.31,2.31,0,0,0,0-.43c0-.19,0-.42,0-.71Z" transform="translate(-4.9 -3.14)" style="stroke:#fff;stroke-miterlimit:10;stroke-width:0.4px;fill:url(#f76f4e56-3fec-4090-a185-5315805ac75a)"/><path d="M91.63,4.44A3.22,3.22,0,0,1,92.3,5.8a19.23,19.23,0,0,1,.13,2.85V14a12.21,12.21,0,0,1-.19,2.72,2,2,0,0,1-.7,1.1,3.66,3.66,0,0,1-1.2.54,12.82,12.82,0,0,1-2.16.13H83.12V3.34h3a18.5,18.5,0,0,1,3.93.26A3.2,3.2,0,0,1,91.63,4.44Z" transform="translate(-4.9 -3.14)" style="stroke:#fff;stroke-miterlimit:10;stroke-width:0.4px;fill:url(#e682d5bb-65a2-4e83-9f53-9432f64a3061)"/><path d="M102.2,3.34v3H99.5V9.24H102v2.87H99.5v3.32h3v3h-7V3.34Z" transform="translate(-4.9 -3.14)" style="stroke:#fff;stroke-miterlimit:10;stroke-width:0.4px;fill:url(#f4042a5f-6768-4662-9871-8d9d1e8578d5)"/><path d="M111.76,3.34v3h-2.7V9.24h2.53v2.87h-2.53v3.32h3v3h-7V3.34Z" transform="translate(-4.9 -3.14)" style="stroke:#fff;stroke-miterlimit:10;stroke-width:0.4px;fill:url(#a789272d-b962-4732-9d5a-f37e617a876a)"/><path d="M5.1,18.46V3.34h4v5.4h1.21V3.34h4V18.46h-4V12.11H9.12v6.35Z" transform="translate(-4.9 -3.14)" style="fill:#231f20"/><path d="M16.92,18.46,19,3.34h5.81l2.31,15.12H23l-.22-2.72H21.33l-.26,2.72Z" transform="translate(-4.9 -3.14)" style="fill:#231f20"/><path d="M29.62,3.34h2.85a24.62,24.62,0,0,1,3.87.19,2.47,2.47,0,0,1,1.15.55,2.93,2.93,0,0,1,.7.94,4.47,4.47,0,0,1,.33,1.18,9.11,9.11,0,0,1,.09,1.26,11.77,11.77,0,0,1-.06,1.25,2.26,2.26,0,0,1-.28.94,1.63,1.63,0,0,1-.66.61,3.2,3.2,0,0,1-1.21.29,5.39,5.39,0,0,1,.68.22,2.67,2.67,0,0,1,.63.32,2.31,2.31,0,0,1,.51.48,1.72,1.72,0,0,1,.3.67,14.61,14.61,0,0,1,.09,2.24v4H34.87V15.84H33.64v2.62h-4Z" transform="translate(-4.9 -3.14)" style="fill:#231f20"/><path d="M41.63,3.34h2.85a24.62,24.62,0,0,1,3.87.19,2.47,2.47,0,0,1,1.15.55,2.76,2.76,0,0,1,.69.94,4.13,4.13,0,0,1,.34,1.18,9.11,9.11,0,0,1,.09,1.26,11.77,11.77,0,0,1-.06,1.25,2.26,2.26,0,0,1-.28.94,1.63,1.63,0,0,1-.66.61,3.2,3.2,0,0,1-1.21.29,5.39,5.39,0,0,1,.68.22,2.87,2.87,0,0,1,.63.32,2.31,2.31,0,0,1,.51.48,1.72,1.72,0,0,1,.3.67,14.61,14.61,0,0,1,.09,2.24v4H46.88V15.84H45.65v2.62h-4Z" transform="translate(-4.9 -3.14)" style="fill:#231f20"/><path d="M52.78,3.34h3.69a54.35,54.35,0,0,1,1,6c.12-.82.27-1.72.45-2.71s.42-2.07.67-3.25h3.72l-3,9.65v5.47H55.61V13Z" transform="translate(-4.9 -3.14)" style="fill:#231f20"/><path d="M70.59,3.34h4V13.45c0,.76,0,1.39,0,1.88s0,.83,0,1a2.41,2.41,0,0,1-.43,1.19,2.06,2.06,0,0,1-.46.42,2.09,2.09,0,0,1-.6.29,7.7,7.7,0,0,1-2,.2h-2V15.82a2,2,0,0,0,.31,0h.21a1.11,1.11,0,0,0,.69-.19.61.61,0,0,0,.19-.24c0-.08.06-.18.09-.28a2.31,2.31,0,0,0,0-.43c0-.19,0-.42,0-.71Z" transform="translate(-4.9 -3.14)" style="fill:#231f20"/><path d="M91.63,4.44A3.22,3.22,0,0,1,92.3,5.8a19.23,19.23,0,0,1,.13,2.85V14a12.21,12.21,0,0,1-.19,2.72,2,2,0,0,1-.7,1.1,3.66,3.66,0,0,1-1.2.54,12.82,12.82,0,0,1-2.16.13H83.12V3.34h3a18.5,18.5,0,0,1,3.93.26A3.2,3.2,0,0,1,91.63,4.44Z" transform="translate(-4.9 -3.14)" style="fill:#231f20"/><path d="M102.2,3.34v3H99.5V9.24H102v2.87H99.5v3.32h3v3h-7V3.34Z" transform="translate(-4.9 -3.14)" style="fill:#231f20"/><path d="M111.76,3.34v3h-2.7V9.24h2.53v2.87h-2.53v3.32h3v3h-7V3.34Z" transform="translate(-4.9 -3.14)" style="fill:#231f20"/><path d="M9.12,19.46v6.35h1.21V19.46h4V34.58h-4v-5.4H9.12v5.4h-4V19.46Z" transform="translate(-4.9 -3.14)" style="fill:url(#bb1602b7-c777-4a82-844b-b5d5e01e43d6)"/><path d="M21.07,19.46l.26,2.72h1.42L23,19.46h4.12L24.78,34.58H19l-2-15.12Z" transform="translate(-4.9 -3.14)" style="fill:url(#e0df1ac5-9af0-4880-a589-63b5c9c715ed)"/><path d="M29.62,19.46h4v2.61h1.23V19.46h3.74v4a14.69,14.69,0,0,1-.09,2.25,1.78,1.78,0,0,1-.3.67,2.26,2.26,0,0,1-.51.47,3.13,3.13,0,0,1-.63.33,5.35,5.35,0,0,1-.68.21,3.18,3.18,0,0,1,1.21.3,1.56,1.56,0,0,1,.66.61,2.21,2.21,0,0,1,.28.94,11.57,11.57,0,0,1,.06,1.24,9.15,9.15,0,0,1-.09,1.27,4.4,4.4,0,0,1-.33,1.17,2.82,2.82,0,0,1-.7.94,2.38,2.38,0,0,1-1.15.55,24.22,24.22,0,0,1-3.87.2H29.62Z" transform="translate(-4.9 -3.14)" style="fill:url(#fc698dfe-4238-4a85-a61f-445cc1cddd7d)"/><path d="M41.63,19.46h4v2.61h1.23V19.46h3.74v4a14.69,14.69,0,0,1-.09,2.25,1.78,1.78,0,0,1-.3.67,2.26,2.26,0,0,1-.51.47,3.43,3.43,0,0,1-.63.33,5.35,5.35,0,0,1-.68.21,3.18,3.18,0,0,1,1.21.3,1.56,1.56,0,0,1,.66.61,2.21,2.21,0,0,1,.28.94,11.57,11.57,0,0,1,.06,1.24,9.15,9.15,0,0,1-.09,1.27,4.07,4.07,0,0,1-.34,1.17,2.67,2.67,0,0,1-.69.94,2.38,2.38,0,0,1-1.15.55,24.22,24.22,0,0,1-3.87.2H41.63Z" transform="translate(-4.9 -3.14)" style="fill:url(#a8602be4-72aa-488a-86d1-e85711b32861)"/><path d="M55.61,24.92V19.46h3.71v5.46l3,9.66H58.56c-.25-1.18-.48-2.27-.67-3.25s-.33-1.89-.45-2.71a55.12,55.12,0,0,1-1,6H52.78Z" transform="translate(-4.9 -3.14)" style="fill:url(#e06a6ddb-d7d9-4c5a-bca2-5c825bb9037a)"/><path d="M70.59,23.93c0-.29,0-.53,0-.71a2.31,2.31,0,0,0,0-.43c0-.11-.06-.2-.09-.29a.67.67,0,0,0-.19-.23,1.11,1.11,0,0,0-.69-.2h-.21l-.31,0V19.46h2a7.79,7.79,0,0,1,2,.19,2.09,2.09,0,0,1,.6.29,2.37,2.37,0,0,1,.46.43,2.41,2.41,0,0,1,.43,1.18c0,.2,0,.55,0,1s0,1.12,0,1.88V34.58h-4Z" transform="translate(-4.9 -3.14)" style="fill:url(#bd50de8b-3c98-4861-a615-32ae04ea4ce0)"/><path d="M90.06,34.32a19.22,19.22,0,0,1-3.93.26h-3V19.46h5.06a12.82,12.82,0,0,1,2.16.13,3.29,3.29,0,0,1,1.2.54,1.92,1.92,0,0,1,.7,1.1A12.21,12.21,0,0,1,92.43,24v5.32a19.23,19.23,0,0,1-.13,2.85,3.28,3.28,0,0,1-.67,1.36A3.2,3.2,0,0,1,90.06,34.32Z" transform="translate(-4.9 -3.14)" style="fill:url(#f2bd8f9b-848d-4972-b93c-53e34f19a178)"/><path d="M95.48,34.58V19.46h7v3h-3v3.33H102v2.87H99.5v2.87h2.7v3Z" transform="translate(-4.9 -3.14)" style="fill:url(#b1c6842b-4d4e-4947-bc96-c8081974b583)"/><path d="M105.05,34.58V19.46h7v3h-3v3.33h2.53v2.87h-2.53v2.87h2.7v3Z" transform="translate(-4.9 -3.14)" style="fill:url(#e2ff0eb1-1566-477e-89cb-16a36d711b8a)"/></svg>