<svg id="e0be7fb5-7871-42a1-98ba-32368d8cbf0c" data-name="Layer 1" xmlns="http://www.w3.org/2000/svg" xmlns:xlink="http://www.w3.org/1999/xlink" viewBox="0 0 107.42 31.49"><defs><linearGradient id="b60be1b5-bd87-4508-b73e-690990351ba0" x1="9.63" y1="58" x2="9.9" y2="38.44" gradientTransform="translate(0 -39.79)" gradientUnits="userSpaceOnUse"><stop offset="0" stop-color="#fff"/><stop offset="1"/></linearGradient><linearGradient id="b8c3757c-a90b-41cc-a2b0-7e091e2860b0" x1="22.01" y1="58.17" x2="22.28" y2="38.62" xlink:href="#b60be1b5-bd87-4508-b73e-690990351ba0"/><linearGradient id="f42f3957-15b7-419d-b390-c051f063d345" x1="34.01" y1="58.34" x2="34.28" y2="38.78" xlink:href="#b60be1b5-bd87-4508-b73e-690990351ba0"/><linearGradient id="efcb8a0d-8017-44fa-90f2-095e5505b6f6" x1="46.01" y1="58.5" x2="46.29" y2="38.95" xlink:href="#b60be1b5-bd87-4508-b73e-690990351ba0"/><linearGradient id="b6f940d0-9d9c-4589-ae4c-d7b2a6edbc7a" x1="57.31" y1="58.66" x2="57.58" y2="39.11" xlink:href="#b60be1b5-bd87-4508-b73e-690990351ba0"/><linearGradient id="a13a4858-9488-4c30-aea7-598301ca1919" x1="71.78" y1="58.86" x2="72.06" y2="39.31" xlink:href="#b60be1b5-bd87-4508-b73e-690990351ba0"/><linearGradient id="a16d3332-e8c6-4a3b-b7ad-c282c6b75074" x1="87.63" y1="59.08" x2="87.9" y2="39.53" xlink:href="#b60be1b5-bd87-4508-b73e-690990351ba0"/><linearGradient id="a2ed3f23-b790-4f53-beb0-6e98922b44b5" x1="98.85" y1="59.24" x2="99.12" y2="39.68" xlink:href="#b60be1b5-bd87-4508-b73e-690990351ba0"/><linearGradient id="b7844c2c-c248-4804-8fd0-17b9df8ce5de" x1="108.41" y1="59.37" x2="108.69" y2="39.82" xlink:href="#b60be1b5-bd87-4508-b73e-690990351ba0"/></defs><path d="M9.12,19.46v6.35h1.21V19.46h4V34.58h-4v-5.4H9.12v5.4h-4V19.46Z" transform="translate(-4.85 -3.09)" style="fill:#000000"/><path d="M21.07,19.46l.26,2.72h1.42L23,19.46h4.12L24.78,34.58H19l-2-15.12Z" transform="translate(-4.85 -3.09)" style="fill:#000000"/><path d="M29.62,19.46h4v2.61h1.23V19.46h3.74v4a14.69,14.69,0,0,1-.09,2.25,1.78,1.78,0,0,1-.3.67,2.26,2.26,0,0,1-.51.47,3.13,3.13,0,0,1-.63.33,5.35,5.35,0,0,1-.68.21,3.18,3.18,0,0,1,1.21.3,1.56,1.56,0,0,1,.66.61,2.21,2.21,0,0,1,.28.94,11.57,11.57,0,0,1,.06,1.24,9.15,9.15,0,0,1-.09,1.27,4.4,4.4,0,0,1-.33,1.17,2.82,2.82,0,0,1-.7.94,2.38,2.38,0,0,1-1.15.55,24.22,24.22,0,0,1-3.87.2H29.62Z" transform="translate(-4.85 -3.09)" style="fill:#000000"/><path d="M41.63,19.46h4v2.61h1.23V19.46h3.74v4a14.69,14.69,0,0,1-.09,2.25,1.78,1.78,0,0,1-.3.67,2.26,2.26,0,0,1-.51.47,3.43,3.43,0,0,1-.63.33,5.35,5.35,0,0,1-.68.21,3.18,3.18,0,0,1,1.21.3,1.56,1.56,0,0,1,.66.61,2.21,2.21,0,0,1,.28.94,11.57,11.57,0,0,1,.06,1.24,9.15,9.15,0,0,1-.09,1.27,4.07,4.07,0,0,1-.34,1.17,2.67,2.67,0,0,1-.69.94,2.38,2.38,0,0,1-1.15.55,24.22,24.22,0,0,1-3.87.2H41.63Z" transform="translate(-4.85 -3.09)" style="fill:#000000"/><path d="M55.61,24.92V19.46h3.71v5.46l3,9.66H58.56c-.25-1.18-.48-2.27-.67-3.25s-.33-1.89-.45-2.71a55.12,55.12,0,0,1-1,6H52.78Z" transform="translate(-4.85 -3.09)" style="fill:#000000"/><path d="M70.59,23.93c0-.29,0-.53,0-.71a2.31,2.31,0,0,0,0-.43c0-.11-.06-.2-.09-.29a.67.67,0,0,0-.19-.23,1.11,1.11,0,0,0-.69-.2h-.21l-.31,0V19.46h2a7.79,7.79,0,0,1,2,.19,2.09,2.09,0,0,1,.6.29,2.37,2.37,0,0,1,.46.43,2.41,2.41,0,0,1,.43,1.18c0,.2,0,.55,0,1s0,1.12,0,1.88V34.58h-4Z" transform="translate(-4.85 -3.09)" style="fill:#000000"/><path d="M90.06,34.32a19.22,19.22,0,0,1-3.93.26h-3V19.46h5.06a12.82,12.82,0,0,1,2.16.13,3.29,3.29,0,0,1,1.2.54,1.92,1.92,0,0,1,.7,1.1A12.21,12.21,0,0,1,92.43,24v5.32a19.23,19.23,0,0,1-.13,2.85,3.28,3.28,0,0,1-.67,1.36A3.2,3.2,0,0,1,90.06,34.32Z" transform="translate(-4.85 -3.09)" style="fill:#000000"/><path d="M95.48,34.58V19.46h7v3h-3v3.33H102v2.87H99.5v2.87h2.7v3Z" transform="translate(-4.85 -3.09)" style="fill:#000000"/><path d="M105.05,34.58V19.46h7v3h-3v3.33h2.53v2.87h-2.53v2.87h2.7v3Z" transform="translate(-4.85 -3.09)" style="fill:#000000"/><path d="M5.1,18.46V3.34h4v5.4h1.21V3.34h4V18.46h-4V12.11H9.12v6.35Z" transform="translate(-4.85 -3.09)" style="stroke:#e3e3e3;stroke-miterlimit:10;stroke-width:0.5px;fill:url(#b60be1b5-bd87-4508-b73e-690990351ba0)"/><path d="M16.92,18.46,19,3.34h5.81l2.31,15.12H23l-.22-2.72H21.33l-.26,2.72Z" transform="translate(-4.85 -3.09)" style="stroke:#e3e3e3;stroke-miterlimit:10;stroke-width:0.5px;fill:url(#b8c3757c-a90b-41cc-a2b0-7e091e2860b0)"/><path d="M29.62,3.34h2.85a24.62,24.62,0,0,1,3.87.19,2.47,2.47,0,0,1,1.15.55,2.93,2.93,0,0,1,.7.94,4.47,4.47,0,0,1,.33,1.18,9.11,9.11,0,0,1,.09,1.26,11.77,11.77,0,0,1-.06,1.25,2.26,2.26,0,0,1-.28.94,1.63,1.63,0,0,1-.66.61,3.2,3.2,0,0,1-1.21.29,5.39,5.39,0,0,1,.68.22,2.67,2.67,0,0,1,.63.32,2.31,2.31,0,0,1,.51.48,1.72,1.72,0,0,1,.3.67,14.61,14.61,0,0,1,.09,2.24v4H34.87V15.84H33.64v2.62h-4Z" transform="translate(-4.85 -3.09)" style="stroke:#e3e3e3;stroke-miterlimit:10;stroke-width:0.5px;fill:url(#f42f3957-15b7-419d-b390-c051f063d345)"/><path d="M41.63,3.34h2.85a24.62,24.62,0,0,1,3.87.19,2.47,2.47,0,0,1,1.15.55,2.76,2.76,0,0,1,.69.94,4.13,4.13,0,0,1,.34,1.18,9.11,9.11,0,0,1,.09,1.26,11.77,11.77,0,0,1-.06,1.25,2.26,2.26,0,0,1-.28.94,1.63,1.63,0,0,1-.66.61,3.2,3.2,0,0,1-1.21.29,5.39,5.39,0,0,1,.68.22,2.87,2.87,0,0,1,.63.32,2.31,2.31,0,0,1,.51.48,1.72,1.72,0,0,1,.3.67,14.61,14.61,0,0,1,.09,2.24v4H46.88V15.84H45.65v2.62h-4Z" transform="translate(-4.85 -3.09)" style="stroke:#e3e3e3;stroke-miterlimit:10;stroke-width:0.5px;fill:url(#efcb8a0d-8017-44fa-90f2-095e5505b6f6)"/><path d="M52.78,3.34h3.69a54.35,54.35,0,0,1,1,6c.12-.82.27-1.72.45-2.71s.42-2.07.67-3.25h3.72l-3,9.65v5.47H55.61V13Z" transform="translate(-4.85 -3.09)" style="stroke:#e3e3e3;stroke-miterlimit:10;stroke-width:0.5px;fill:url(#b6f940d0-9d9c-4589-ae4c-d7b2a6edbc7a)"/><path d="M70.59,3.34h4V13.45c0,.76,0,1.39,0,1.88s0,.83,0,1a2.41,2.41,0,0,1-.43,1.19,2.06,2.06,0,0,1-.46.42,2.09,2.09,0,0,1-.6.29,7.7,7.7,0,0,1-2,.2h-2V15.82a2,2,0,0,0,.31,0h.21a1.11,1.11,0,0,0,.69-.19.61.61,0,0,0,.19-.24c0-.08.06-.18.09-.28a2.31,2.31,0,0,0,0-.43c0-.19,0-.42,0-.71Z" transform="translate(-4.85 -3.09)" style="stroke:#e3e3e3;stroke-miterlimit:10;stroke-width:0.5px;fill:url(#a13a4858-9488-4c30-aea7-598301ca1919)"/><path d="M91.63,4.44A3.22,3.22,0,0,1,92.3,5.8a19.23,19.23,0,0,1,.13,2.85V14a12.21,12.21,0,0,1-.19,2.72,2,2,0,0,1-.7,1.1,3.66,3.66,0,0,1-1.2.54,12.82,12.82,0,0,1-2.16.13H83.12V3.34h3a18.5,18.5,0,0,1,3.93.26A3.2,3.2,0,0,1,91.63,4.44Z" transform="translate(-4.85 -3.09)" style="stroke:#e3e3e3;stroke-miterlimit:10;stroke-width:0.5px;fill:url(#a16d3332-e8c6-4a3b-b7ad-c282c6b75074)"/><path d="M102.2,3.34v3H99.5V9.24H102v2.87H99.5v3.32h3v3h-7V3.34Z" transform="translate(-4.85 -3.09)" style="stroke:#e3e3e3;stroke-miterlimit:10;stroke-width:0.5px;fill:url(#a2ed3f23-b790-4f53-beb0-6e98922b44b5)"/><path d="M111.76,3.34v3h-2.7V9.24h2.53v2.87h-2.53v3.32h3v3h-7V3.34Z" transform="translate(-4.85 -3.09)" style="stroke:#e3e3e3;stroke-miterlimit:10;stroke-width:0.5px;fill:url(#b7844c2c-c248-4804-8fd0-17b9df8ce5de)"/></svg>