<svg version="1.1" id="Layer_1" xmlns="http://www.w3.org/2000/svg" xmlns:xlink="http://www.w3.org/1999/xlink" x="0px" y="0px"
         width="84.75px" height="50px" viewBox="84.75 65 84.75 50" enable-background="new 84.75 65 84.75 50" xml:space="preserve">
<g>
        <g>
               <path fill="#FFFFFF" d="M120.667,100.223l19.222-9.945L120.667,80.25V100.223L120.667,100.223z"/>
               <path opacity="0.12" fill="#420000" enable-background="new    " d="M120.667,80.25l16.861,11.25l2.361-1.222L120.667,80.25
                       L120.667,80.25z"/>
               <path d="M162.806,76.778c0,0-0.693-4.889-2.832-7.056c-2.693-2.833-5.72-2.833-7.136-3C142.925,66,128.014,66,128.014,66h-0.027
                       c0,0-14.911,0-24.879,0.722c-1.388,0.167-4.415,0.167-7.136,3c-2.11,2.167-2.804,7.056-2.804,7.056s-0.722,5.778-0.722,11.528
                       v5.389c0,5.75,0.722,11.5,0.722,11.5s0.694,4.889,2.832,7.056c2.693,2.833,6.248,2.75,7.831,3.028
                       c5.692,0.555,24.157,0.722,24.157,0.722s14.938-0.027,24.879-0.75c1.389-0.167,4.415-0.167,7.136-3
                       c2.139-2.167,2.832-7.056,2.832-7.056s0.723-5.75,0.723-11.5v-5.389C163.528,82.556,162.806,76.778,162.806,76.778L162.806,76.778
                       z M120.656,100.223V80.25l19.214,10.028L120.656,100.223L120.656,100.223z"/>
        </g>
</g>
</svg>