<svg id="b3ceaaf7-1c47-48bb-8a5a-358ccf317b33" data-name="Layer 1" xmlns="http://www.w3.org/2000/svg" xmlns:xlink="http://www.w3.org/1999/xlink" viewBox="0 0 510.98 153.73"><defs><linearGradient id="b651bbc9-48db-49e7-b988-69fdaf481cdd" x1="22.39" y1="243.5" x2="22.39" y2="93.5" gradientUnits="userSpaceOnUse"><stop offset="0.42" stop-color="#fff" stop-opacity="0.2"/><stop offset="1"/></linearGradient><linearGradient id="e254714e-f997-4ceb-9713-4dfa689eba60" x1="80.93" y1="243.5" x2="80.93" y2="93.5" xlink:href="#b651bbc9-48db-49e7-b988-69fdaf481cdd"/><linearGradient id="b2430191-6e02-4d3a-b57f-13877bc291b8" x1="143.57" y1="243.5" x2="143.57" y2="93.5" xlink:href="#b651bbc9-48db-49e7-b988-69fdaf481cdd"/><linearGradient id="b575ef42-e60a-4809-ade9-13a55234d787" x1="207.39" y1="243.5" x2="207.39" y2="93.5" xlink:href="#b651bbc9-48db-49e7-b988-69fdaf481cdd"/><linearGradient id="fb9d7a27-a94e-4f9e-b839-9d04b4c18dba" x1="273.81" y1="243.5" x2="273.81" y2="93.5" xlink:href="#b651bbc9-48db-49e7-b988-69fdaf481cdd"/><linearGradient id="bb81770c-bfdd-4af0-9fa8-13954d704d8a" x1="360.43" y1="243.5" x2="360.43" y2="93.5" xlink:href="#b651bbc9-48db-49e7-b988-69fdaf481cdd"/><linearGradient id="eb3319b7-f0ee-4571-be59-cbbdbcda0045" x1="420.97" y1="245.5" x2="420.97" y2="95.5" xlink:href="#b651bbc9-48db-49e7-b988-69fdaf481cdd"/><linearGradient id="f8e33bef-7382-44ea-9b1d-60812c5a3f6d" x1="486.47" y1="245.5" x2="486.47" y2="95.5" xlink:href="#b651bbc9-48db-49e7-b988-69fdaf481cdd"/></defs><path d="M0,17.11H44.06V32.23h-12V92.71H11.88V32.23H0Z" transform="translate(0 -17.11)" style="fill:#231f20"/><path d="M56.06,17.11H71.71V44a55.5,55.5,0,0,1,8-5.5,19.85,19.85,0,0,1,8.64-2,17.36,17.36,0,0,1,7.93,1.62,13.67,13.67,0,0,1,5.14,4.43,19,19,0,0,1,2.81,6.53,35.46,35.46,0,0,1,.86,7.94V92.39H89.43V65.5c0-1.09,0-2.18-.06-3.3s-.09-2.22-.16-3.29A12.06,12.06,0,0,0,88,54.05a4.22,4.22,0,0,0-2.48-2.49,9.37,9.37,0,0,0-4.65-.86,11.74,11.74,0,0,0-4.32.76,16.46,16.46,0,0,0-4.86,2.48V92.39H56.06Z" transform="translate(0 -17.11)" style="fill:#231f20"/><path d="M151.85,55.67v-.33a6.67,6.67,0,0,0-1.19-4.21,7.29,7.29,0,0,0-3.08-2.27,15.28,15.28,0,0,0-4.1-1c-1.48-.14-2.9-.21-4.27-.21a24.06,24.06,0,0,0-3.94.32,19.79,19.79,0,0,0-4.16,1.19c-1.44.43-2.66.85-3.67,1.24s-1.8.74-2.38,1h-1.4l-3.13-12.75a8.56,8.56,0,0,1,1.84-.38l2.86-.37,3.24-.44c1.11-.14,2.14-.29,3.07-.43A51.35,51.35,0,0,1,142.24,36a60.93,60.93,0,0,1,9.39.7,22.27,22.27,0,0,1,7.83,2.7,14.53,14.53,0,0,1,5.4,5.62,19.22,19.22,0,0,1,2,9.34V92.6H124A11.1,11.1,0,0,1,122,89.26a28,28,0,0,1-1.41-4.76,51.9,51.9,0,0,1-.8-5.13,41.38,41.38,0,0,1-.27-4.26,18.21,18.21,0,0,1,2-9,17.14,17.14,0,0,1,6.75-6.26A28.82,28.82,0,0,1,133.59,58c2-.5,4.09-.92,6.22-1.24s4.23-.57,6.31-.76S150.12,55.74,151.85,55.67Z" transform="translate(0 -17.11)" style="fill:#231f20"/><path d="M182.52,38.06h15.77V44a60.8,60.8,0,0,1,7.61-5.29,17.69,17.69,0,0,1,9-2.16,17.18,17.18,0,0,1,7.83,1.62,13.72,13.72,0,0,1,5.13,4.43,19,19,0,0,1,2.81,6.53,35.46,35.46,0,0,1,.86,7.94V92.39H215.89V65.5c0-1.09,0-2.18,0-3.3s-.09-2.22-.17-3.29-.3-2-.48-2.81a15.12,15.12,0,0,0-.6-2.05A5.07,5.07,0,0,0,212,51.56a9.08,9.08,0,0,0-4.53-.86,12,12,0,0,0-4.43.76,16.56,16.56,0,0,0-4.75,2.48V92.39H182.52Z" transform="translate(0 -17.11)" style="fill:#231f20"/><path d="M247.43,17.11h15.76V62l17-24h18L280.58,61.5l18.9,30.89H281.23L267.41,68.84l-4.22,5.73V92.39H247.43Z" transform="translate(0 -17.11)" style="fill:#231f20"/><path d="M336.31,17.11h18.47q4.43,22.25,4.86,29.81.87-6.15,2.27-13.56t3.35-16.25h18.57L369,65.39V92.71H350.46V65.39Z" transform="translate(0 -17.11)" style="fill:#231f20"/><path d="M447.34,65.28a38.37,38.37,0,0,1-1.68,11.66,25.74,25.74,0,0,1-5,9.13A22,22,0,0,1,432.38,92a33.75,33.75,0,0,1-23.44,0,22.43,22.43,0,0,1-8.37-5.94,25.39,25.39,0,0,1-5-9.13,38.69,38.69,0,0,1-1.67-11.66,39.23,39.23,0,0,1,1.67-11.72,25.36,25.36,0,0,1,5-9.18,22.43,22.43,0,0,1,8.37-5.94,33.6,33.6,0,0,1,23.44,0,22.43,22.43,0,0,1,8.37,5.94,24.7,24.7,0,0,1,5,9.13A40.11,40.11,0,0,1,447.34,65.28Z" transform="translate(0 -17.11)" style="fill:#231f20"/><path d="M461.59,38.06h15.66v27c0,1.44,0,2.7.05,3.78s.1,2.09.17,3q.54,4.53,2.26,6.21t6,1.67a14.5,14.5,0,0,0,4.81-.81,14.83,14.83,0,0,0,4.26-2.32V38.06h15.77V92.39H494.85V86.45a44.86,44.86,0,0,1-4.05,3.24A27,27,0,0,1,487,92a11.57,11.57,0,0,1-3.89,1.51,24.87,24.87,0,0,1-4.75.43,17.46,17.46,0,0,1-7.88-1.62,13.75,13.75,0,0,1-5.19-4.38,18.37,18.37,0,0,1-2.81-6.47,35.55,35.55,0,0,1-.86-8Z" transform="translate(0 -17.11)" style="fill:#231f20"/><path d="M.36,155.73H12.24V95.25H32.43v60.48h12v15.12H.36Z" transform="translate(0 -17.11)" style="fill:url(#b651bbc9-48db-49e7-b988-69fdaf481cdd)"/><path d="M56.41,95.57H72.07V134a16.46,16.46,0,0,0,4.86,2.48,11.94,11.94,0,0,0,4.32.76,9.27,9.27,0,0,0,4.65-.87,4.2,4.2,0,0,0,2.48-2.48,12.11,12.11,0,0,0,1.19-4.86c.07-1.08.12-2.18.16-3.29s.06-2.22.06-3.3V95.57h15.65v35.32a35.37,35.37,0,0,1-.86,7.93,18.79,18.79,0,0,1-2.81,6.54,13.64,13.64,0,0,1-5.13,4.43,17.39,17.39,0,0,1-7.93,1.62,19.85,19.85,0,0,1-8.64-1.95,55.76,55.76,0,0,1-8-5.5v26.89H56.41Z" transform="translate(0 -17.11)" style="fill:url(#e254714e-f997-4ceb-9713-4dfa689eba60)"/><path d="M146.48,131.91q-3.14-.27-6.31-.75T134,129.92a28.82,28.82,0,0,1-5.29-1.84,17.14,17.14,0,0,1-6.75-6.26,18.21,18.21,0,0,1-2-9,41.34,41.34,0,0,1,.26-4.27,51.77,51.77,0,0,1,.81-5.12,28,28,0,0,1,1.41-4.76,10.89,10.89,0,0,1,1.94-3.34h42.88v38.22a19.29,19.29,0,0,1-2,9.35,14.44,14.44,0,0,1-5.4,5.61,22.28,22.28,0,0,1-7.83,2.71,61.05,61.05,0,0,1-9.39.69,52,52,0,0,1-10.7-1.07c-.94-.15-2-.29-3.08-.44s-2.19-.28-3.24-.43l-2.86-.38a8.73,8.73,0,0,1-1.83-.37L124,136.5h1.4c.58.29,1.37.63,2.38,1s2.23.81,3.67,1.24a19.62,19.62,0,0,0,4.16,1.19,24.06,24.06,0,0,0,3.94.32c1.36,0,2.79-.07,4.26-.21a15.26,15.26,0,0,0,4.11-1,7.44,7.44,0,0,0,3.08-2.27,6.68,6.68,0,0,0,1.19-4.22v-.32Q149.61,132.19,146.48,131.91Z" transform="translate(0 -17.11)" style="fill:url(#b2430191-6e02-4d3a-b57f-13877bc291b8)"/><path d="M182.88,95.57h15.76V134a16.82,16.82,0,0,0,4.75,2.48,12.28,12.28,0,0,0,4.43.76,9,9,0,0,0,4.54-.87,5,5,0,0,0,2.59-2.48,15.66,15.66,0,0,0,.59-2,27.25,27.25,0,0,0,.49-2.81c.07-1.08.13-2.18.17-3.29s.05-2.22.05-3.3V95.57h15.66v35.32a34.79,34.79,0,0,1-.87,7.93,18.78,18.78,0,0,1-2.8,6.54,13.72,13.72,0,0,1-5.13,4.43,17.18,17.18,0,0,1-7.83,1.62,17.69,17.69,0,0,1-9-2.16,62.72,62.72,0,0,1-7.62-5.29v5.93H182.88Z" transform="translate(0 -17.11)" style="fill:url(#b575ef42-e60a-4809-ade9-13a55234d787)"/><path d="M247.78,95.57h15.77v17.82l4.22,5.72,13.82-23.54h18.25l-18.9,30.89,17.6,23.43h-18l-17-24v44.93H247.78Z" transform="translate(0 -17.11)" style="fill:url(#fb9d7a27-a94e-4f9e-b839-9d04b4c18dba)"/><path d="M350.82,122.57V95.25h18.57v27.32l14.8,48.28H365.61q-1.94-8.86-3.34-16.26T360,141q-.44,7.56-4.86,29.81H336.67Z" transform="translate(0 -17.11)" style="fill:url(#bb81770c-bfdd-4af0-9fa8-13954d704d8a)"/><path d="M446.07,136.45a24.54,24.54,0,0,1-5,9.13,22.49,22.49,0,0,1-8.37,5.93,33.6,33.6,0,0,1-23.44,0,22.41,22.41,0,0,1-8.37-5.93,25.36,25.36,0,0,1-5-9.18,39,39,0,0,1-1.67-11.72A38.44,38.44,0,0,1,395.91,113a25.34,25.34,0,0,1,5-9.12A22.32,22.32,0,0,1,409.3,98a33.6,33.6,0,0,1,23.44,0,21.86,21.86,0,0,1,8.31,5.94,25.71,25.71,0,0,1,5,9.12,38.44,38.44,0,0,1,1.67,11.67A40.11,40.11,0,0,1,446.07,136.45Z" transform="translate(0 -17.11)" style="fill:url(#eb3319b7-f0ee-4571-be59-cbbdbcda0045)"/><path d="M462,116.47a35.4,35.4,0,0,1,.86-7.94,18.32,18.32,0,0,1,2.81-6.48,13.74,13.74,0,0,1,5.19-4.37,17.43,17.43,0,0,1,7.88-1.62,24.87,24.87,0,0,1,4.75.43A11.57,11.57,0,0,1,487.33,98a26,26,0,0,1,3.83,2.27,44.86,44.86,0,0,1,4,3.24V97.57H511v54.32H495.21V113.34A15.11,15.11,0,0,0,491,111a14.8,14.8,0,0,0-4.81-.8c-2.88,0-4.9.55-6.05,1.67s-1.91,3.19-2.27,6.21c-.07.94-.12,2-.16,3s-.05,2.35-.05,3.78v27H462Z" transform="translate(0 -17.11)" style="fill:url(#f8e33bef-7382-44ea-9b1d-60812c5a3f6d)"/><text y="-17.11"/></svg>
 